<svg width="450" height="70" viewBox="0 0 450 70" fill="none" xmlns="http://www.w3.org/2000/svg">
<rect width="450" height="70" rx="10" fill="#407BFF"/>
<path d="M32.6009 45V27.8672H36.2337V45H32.6009ZM55.3855 45H50.7683L43.3152 32.0391H43.2097C43.3581 34.3281 43.4323 35.9609 43.4323 36.9375V45H40.1862V27.8672H44.7683L52.2097 40.6992H52.2917C52.1745 38.4727 52.1159 36.8984 52.1159 35.9766V27.8672H55.3855V45ZM59.3497 45V27.8672H62.9825V45H59.3497ZM74.2123 30.6445C72.8452 30.6445 71.7866 31.1602 71.0366 32.1914C70.2866 33.2148 69.9116 34.6445 69.9116 36.4805C69.9116 40.3008 71.3452 42.2109 74.2123 42.2109C75.4155 42.2109 76.8725 41.9102 78.5834 41.3086V44.3555C77.1772 44.9414 75.6069 45.2344 73.8725 45.2344C71.3803 45.2344 69.4741 44.4805 68.1537 42.9727C66.8334 41.457 66.1733 39.2852 66.1733 36.457C66.1733 34.6758 66.4975 33.1172 67.1459 31.7812C67.7944 30.4375 68.7241 29.4102 69.935 28.6992C71.1537 27.9805 72.5795 27.6211 74.2123 27.6211C75.8764 27.6211 77.5483 28.0234 79.228 28.8281L78.0561 31.7812C77.4155 31.4766 76.7709 31.2109 76.1225 30.9844C75.4741 30.7578 74.8373 30.6445 74.2123 30.6445ZM81.8797 45V27.8672H85.5125V45H81.8797ZM99.3322 45H89.465V27.8672H99.3322V30.8438H93.0978V34.6055H98.8986V37.582H93.0978V42H99.3322V45ZM118.921 45L117.679 40.9219H111.433L110.19 45H106.276L112.323 27.7969H116.765L122.835 45H118.921ZM116.811 37.875C115.663 34.1797 115.015 32.0898 114.866 31.6055C114.725 31.1211 114.624 30.7383 114.561 30.457C114.304 31.457 113.565 33.9297 112.347 37.875H116.811ZM131.147 35.3789H137.944V44.2617C136.842 44.6211 135.803 44.8711 134.826 45.0117C133.858 45.1602 132.865 45.2344 131.85 45.2344C129.264 45.2344 127.287 44.4766 125.92 42.9609C124.561 41.4375 123.881 39.2539 123.881 36.4102C123.881 33.6445 124.67 31.4883 126.248 29.9414C127.834 28.3945 130.03 27.6211 132.834 27.6211C134.592 27.6211 136.287 27.9727 137.92 28.6758L136.713 31.582C135.463 30.957 134.162 30.6445 132.811 30.6445C131.24 30.6445 129.983 31.1719 129.037 32.2266C128.092 33.2812 127.619 34.6992 127.619 36.4805C127.619 38.3398 127.998 39.7617 128.756 40.7461C129.522 41.7227 130.631 42.2109 132.084 42.2109C132.842 42.2109 133.612 42.1328 134.393 41.9766V38.4023H131.147V35.3789ZM157.224 36.4102C157.224 39.2461 156.521 41.4258 155.115 42.9492C153.709 44.4727 151.693 45.2344 149.068 45.2344C146.443 45.2344 144.427 44.4727 143.021 42.9492C141.615 41.4258 140.912 39.2383 140.912 36.3867C140.912 33.5352 141.615 31.3594 143.021 29.8594C144.435 28.3516 146.459 27.5977 149.091 27.5977C151.724 27.5977 153.736 28.3555 155.127 29.8711C156.525 31.3867 157.224 33.5664 157.224 36.4102ZM144.72 36.4102C144.72 38.3242 145.084 39.7656 145.81 40.7344C146.537 41.7031 147.623 42.1875 149.068 42.1875C151.966 42.1875 153.416 40.2617 153.416 36.4102C153.416 32.5508 151.974 30.6211 149.091 30.6211C147.646 30.6211 146.556 31.1094 145.822 32.0859C145.088 33.0547 144.72 34.4961 144.72 36.4102ZM164.048 35.4727H165.22C166.368 35.4727 167.216 35.2812 167.763 34.8984C168.31 34.5156 168.583 33.9141 168.583 33.0938C168.583 32.2812 168.302 31.7031 167.739 31.3594C167.185 31.0156 166.321 30.8438 165.149 30.8438H164.048V35.4727ZM164.048 38.4258V45H160.415V27.8672H165.407C167.735 27.8672 169.458 28.293 170.575 29.1445C171.692 29.9883 172.251 31.2734 172.251 33C172.251 34.0078 171.974 34.9062 171.419 35.6953C170.864 36.4766 170.079 37.0898 169.063 37.5352C171.642 41.3867 173.321 43.875 174.103 45H170.071L165.981 38.4258H164.048ZM186.387 45L185.145 40.9219H178.899L177.657 45H173.742L179.789 27.7969H184.231L190.301 45H186.387ZM184.278 37.875C183.129 34.1797 182.481 32.0898 182.332 31.6055C182.192 31.1211 182.09 30.7383 182.028 30.457C181.77 31.457 181.032 33.9297 179.813 37.875H184.278ZM208.472 45L207.23 40.9219H200.983L199.741 45H195.827L201.874 27.7969H206.315L212.386 45H208.472ZM206.362 37.875C205.214 34.1797 204.565 32.0898 204.417 31.6055C204.276 31.1211 204.175 30.7383 204.112 30.457C203.855 31.457 203.116 33.9297 201.898 37.875H206.362ZM230.181 40.2422C230.181 41.7891 229.623 43.0078 228.506 43.8984C227.396 44.7891 225.849 45.2344 223.865 45.2344C222.037 45.2344 220.42 44.8906 219.013 44.2031V40.8281C220.17 41.3438 221.146 41.707 221.943 41.918C222.748 42.1289 223.482 42.2344 224.146 42.2344C224.943 42.2344 225.553 42.082 225.974 41.7773C226.404 41.4727 226.619 41.0195 226.619 40.418C226.619 40.082 226.525 39.7852 226.338 39.5273C226.15 39.2617 225.873 39.0078 225.506 38.7656C225.146 38.5234 224.408 38.1367 223.291 37.6055C222.244 37.1133 221.459 36.6406 220.935 36.1875C220.412 35.7344 219.994 35.207 219.681 34.6055C219.369 34.0039 219.213 33.3008 219.213 32.4961C219.213 30.9805 219.724 29.7891 220.748 28.9219C221.779 28.0547 223.201 27.6211 225.013 27.6211C225.904 27.6211 226.752 27.7266 227.556 27.9375C228.369 28.1484 229.217 28.4453 230.099 28.8281L228.928 31.6523C228.013 31.2773 227.256 31.0156 226.654 30.8672C226.06 30.7188 225.474 30.6445 224.896 30.6445C224.209 30.6445 223.681 30.8047 223.314 31.125C222.947 31.4453 222.763 31.8633 222.763 32.3789C222.763 32.6992 222.838 32.9805 222.986 33.2227C223.135 33.457 223.369 33.6875 223.689 33.9141C224.017 34.1328 224.787 34.5312 225.998 35.1094C227.599 35.875 228.697 36.6445 229.291 37.418C229.885 38.1836 230.181 39.125 230.181 40.2422ZM246.872 27.8672V38.9531C246.872 40.2188 246.587 41.3281 246.017 42.2812C245.454 43.2344 244.638 43.9648 243.568 44.4727C242.497 44.9805 241.232 45.2344 239.771 45.2344C237.568 45.2344 235.857 44.6719 234.638 43.5469C233.419 42.4141 232.81 40.8672 232.81 38.9062V27.8672H236.431V38.3555C236.431 39.6758 236.696 40.6445 237.228 41.2617C237.759 41.8789 238.638 42.1875 239.864 42.1875C241.052 42.1875 241.911 41.8789 242.443 41.2617C242.982 40.6367 243.251 39.6602 243.251 38.332V27.8672H246.872ZM261.196 45L259.954 40.9219H253.708L252.465 45H248.551L254.598 27.7969H259.04L265.11 45H261.196ZM259.086 37.875C257.938 34.1797 257.29 32.0898 257.141 31.6055C257 31.1211 256.899 30.7383 256.836 30.457C256.579 31.457 255.84 33.9297 254.622 37.875H259.086ZM272.792 27.8672H278.124C280.554 27.8672 282.316 28.2148 283.409 28.9102C284.511 29.5977 285.062 30.6953 285.062 32.2031C285.062 33.2266 284.82 34.0664 284.335 34.7227C283.859 35.3789 283.222 35.7734 282.425 35.9062V36.0234C283.511 36.2656 284.292 36.7188 284.769 37.3828C285.253 38.0469 285.495 38.9297 285.495 40.0312C285.495 41.5938 284.929 42.8125 283.796 43.6875C282.671 44.5625 281.14 45 279.202 45H272.792V27.8672ZM276.425 34.6523H278.534C279.519 34.6523 280.23 34.5 280.667 34.1953C281.113 33.8906 281.335 33.3867 281.335 32.6836C281.335 32.0273 281.093 31.5586 280.609 31.2773C280.132 30.9883 279.374 30.8438 278.335 30.8438H276.425V34.6523ZM276.425 37.5352V42H278.792C279.792 42 280.53 41.8086 281.007 41.4258C281.484 41.043 281.722 40.457 281.722 39.668C281.722 38.2461 280.706 37.5352 278.675 37.5352H276.425ZM302.503 27.8672V38.9531C302.503 40.2188 302.217 41.3281 301.647 42.2812C301.085 43.2344 300.268 43.9648 299.198 44.4727C298.128 44.9805 296.862 45.2344 295.401 45.2344C293.198 45.2344 291.487 44.6719 290.268 43.5469C289.049 42.4141 288.44 40.8672 288.44 38.9062V27.8672H292.061V38.3555C292.061 39.6758 292.327 40.6445 292.858 41.2617C293.389 41.8789 294.268 42.1875 295.495 42.1875C296.682 42.1875 297.542 41.8789 298.073 41.2617C298.612 40.6367 298.881 39.6602 298.881 38.332V27.8672H302.503ZM316.451 40.2422C316.451 41.7891 315.893 43.0078 314.775 43.8984C313.666 44.7891 312.119 45.2344 310.135 45.2344C308.307 45.2344 306.689 44.8906 305.283 44.2031V40.8281C306.439 41.3438 307.416 41.707 308.213 41.918C309.018 42.1289 309.752 42.2344 310.416 42.2344C311.213 42.2344 311.822 42.082 312.244 41.7773C312.674 41.4727 312.889 41.0195 312.889 40.418C312.889 40.082 312.795 39.7852 312.607 39.5273C312.42 39.2617 312.143 39.0078 311.775 38.7656C311.416 38.5234 310.678 38.1367 309.56 37.6055C308.514 37.1133 307.728 36.6406 307.205 36.1875C306.682 35.7344 306.264 35.207 305.951 34.6055C305.639 34.0039 305.482 33.3008 305.482 32.4961C305.482 30.9805 305.994 29.7891 307.018 28.9219C308.049 28.0547 309.471 27.6211 311.283 27.6211C312.174 27.6211 313.021 27.7266 313.826 27.9375C314.639 28.1484 315.486 28.4453 316.369 28.8281L315.197 31.6523C314.283 31.2773 313.525 31.0156 312.924 30.8672C312.33 30.7188 311.744 30.6445 311.166 30.6445C310.478 30.6445 309.951 30.8047 309.584 31.125C309.217 31.4453 309.033 31.8633 309.033 32.3789C309.033 32.6992 309.107 32.9805 309.256 33.2227C309.404 33.457 309.639 33.6875 309.959 33.9141C310.287 34.1328 311.057 34.5312 312.268 35.1094C313.869 35.875 314.967 36.6445 315.56 37.418C316.154 38.1836 316.451 39.125 316.451 40.2422ZM326.474 30.6445C325.107 30.6445 324.048 31.1602 323.298 32.1914C322.548 33.2148 322.173 34.6445 322.173 36.4805C322.173 40.3008 323.607 42.2109 326.474 42.2109C327.677 42.2109 329.134 41.9102 330.845 41.3086V44.3555C329.439 44.9414 327.868 45.2344 326.134 45.2344C323.642 45.2344 321.736 44.4805 320.415 42.9727C319.095 41.457 318.435 39.2852 318.435 36.457C318.435 34.6758 318.759 33.1172 319.407 31.7812C320.056 30.4375 320.986 29.4102 322.197 28.6992C323.415 27.9805 324.841 27.6211 326.474 27.6211C328.138 27.6211 329.81 28.0234 331.49 28.8281L330.318 31.7812C329.677 31.4766 329.032 31.2109 328.384 30.9844C327.736 30.7578 327.099 30.6445 326.474 30.6445ZM344.63 45L343.387 40.9219H337.141L335.899 45H331.985L338.032 27.7969H342.473L348.544 45H344.63ZM342.52 37.875C341.372 34.1797 340.723 32.0898 340.575 31.6055C340.434 31.1211 340.333 30.7383 340.27 30.457C340.012 31.457 339.274 33.9297 338.055 37.875H342.52Z" fill="white"/>
<path d="M380 0H440C445.523 0 450 4.47715 450 10V60C450 65.5229 445.523 70 440 70H380V0Z" fill="#263238" fill-opacity="0.5"/>
<path d="M413 25L423 35L413 45" stroke="white" stroke-width="2" stroke-linecap="round" stroke-linejoin="round"/>
</svg>
